<svg id="Grupo_3" data-name="Grupo 3" xmlns="http://www.w3.org/2000/svg" width="220.893" height="278.325" viewBox="0 0 220.893 278.325">
  <path id="Trazado_7" data-name="Trazado 7" d="M24.5,94.021H51.007A17.671,17.671,0,0,0,68.679,76.35V49.843A17.671,17.671,0,0,0,51.007,32.171H24.5V14.5H51.007A35.343,35.343,0,0,1,86.35,49.843V76.35a35.343,35.343,0,0,1-35.343,35.343H24.5Z" transform="translate(134.543 113.618)" fill="#faa827"/>
  <path id="Trazado_8" data-name="Trazado 8" d="M6.5,8.5H165.543V194.05a17.671,17.671,0,0,1-17.671,17.671H24.171A17.671,17.671,0,0,1,6.5,194.05Z" transform="translate(-6.5 66.604)" fill="#f7991d"/>
  <rect id="Rectángulo_4" data-name="Rectángulo 4" width="8.836" height="17.671" transform="translate(159.043 128.118)" fill="#e37626"/>
  <rect id="Rectángulo_5" data-name="Rectángulo 5" width="8.836" height="17.671" transform="translate(159.043 207.639)" fill="#e37626"/>
  <rect id="Rectángulo_6" data-name="Rectángulo 6" width="159.043" height="8.836" transform="translate(0 75.104)" fill="#e37626"/>
  <path id="Trazado_9" data-name="Trazado 9" d="M70.5,24.154a22.98,22.98,0,0,0-16.67-6.348,26.779,26.779,0,0,0-13.687,6.986,68.592,68.592,0,0,1-12.421,9.436,17.332,17.332,0,0,1-10.03,1.921,22.7,22.7,0,0,1-9.209-4.929A32.513,32.513,0,0,0,31.636,55.347,36.762,36.762,0,0,0,65.45,48.532a35.118,35.118,0,0,0,5.063-5.183,35.119,35.119,0,0,0,5.064,5.182,36.762,36.762,0,0,0,33.814,6.815,32.513,32.513,0,0,0,23.157-24.128,22.7,22.7,0,0,1-9.209,4.929,17.332,17.332,0,0,1-10.03-1.921,68.594,68.594,0,0,1-12.421-9.435A26.779,26.779,0,0,0,87.2,17.806a22.979,22.979,0,0,0-16.67,6.348Z" transform="translate(9.008 139.412)" fill="#58565d"/>
  <path id="Trazado_10" data-name="Trazado 10" d="M17.688,44.984a17.334,17.334,0,0,0,10.03-1.922,68.578,68.578,0,0,0,12.421-9.436,26.779,26.779,0,0,1,13.687-6.985A22.979,22.979,0,0,1,70.5,32.99h.035A22.979,22.979,0,0,1,87.2,26.641a26.78,26.78,0,0,1,13.687,6.985,68.576,68.576,0,0,0,12.421,9.436,17.335,17.335,0,0,0,10.03,1.921,10.772,10.772,0,0,0,3.263-1.068,26.153,26.153,0,0,0,5.945-12.7,22.7,22.7,0,0,1-9.208,4.93,17.335,17.335,0,0,1-10.03-1.922,68.577,68.577,0,0,1-12.421-9.436A26.78,26.78,0,0,0,87.2,17.806a22.979,22.979,0,0,0-16.669,6.349H70.5a22.979,22.979,0,0,0-16.669-6.349,26.78,26.78,0,0,0-13.687,6.985,68.577,68.577,0,0,1-12.421,9.436,17.335,17.335,0,0,1-10.03,1.922,22.7,22.7,0,0,1-9.208-4.93,26.153,26.153,0,0,0,5.945,12.7,10.772,10.772,0,0,0,3.264,1.067Z" transform="translate(9.008 139.411)" fill="#3c3b41"/>
  <path id="Trazado_11" data-name="Trazado 11" d="M74.268,61.85a4.415,4.415,0,0,1-4.418-4.418A13.268,13.268,0,0,0,56.6,44.179H30.089a13.254,13.254,0,1,1,0-26.507h79.521a4.418,4.418,0,1,0,0-8.836H12.418a4.418,4.418,0,0,1,0-8.836h97.193a13.254,13.254,0,0,1,0,26.507H30.089a4.418,4.418,0,1,0,0,8.836H56.6A22.115,22.115,0,0,1,78.686,57.432a4.415,4.415,0,0,1-4.418,4.418Z" transform="translate(5.254)" fill="#8b8891"/>
  <path id="Trazado_12" data-name="Trazado 12" d="M61.6,30.507a4.415,4.415,0,0,1-4.418-4.418A13.268,13.268,0,0,0,43.925,12.836H17.418a4.418,4.418,0,1,1,0-8.836H43.925A22.115,22.115,0,0,1,66.014,26.089,4.415,4.415,0,0,1,61.6,30.507Z" transform="translate(44.432 31.343)" fill="#8b8891"/>
</svg>
